<?xml version="1.0" encoding="UTF-8"?><svg id="Artboard_2" xmlns="http://www.w3.org/2000/svg" width="1600mm" height="1000mm" viewBox="0 0 4535.43 2834.65"><defs><style>.cls-1{fill:#f99d1c;}.cls-1,.cls-2{stroke-width:0px;}.cls-2{fill:#0080c6;}</style></defs><g id="Text"><path class="cls-1" d="m1401,1679.04l69.92,172.36-27.32-5.53,63.41-166.83h55.93l-109.27,250.4-109.27-250.4h56.58Z"/><path class="cls-1" d="m1604.24,1679.04h47.15v239.35h-47.15v-239.35Z"/><path class="cls-1" d="m1713.18,1679.04h47.15v193.82h112.52v45.53h-159.67v-239.35Z"/><path class="cls-1" d="m2135.94,1928.15l-181.46-163.9,13.98,7.8.98,146.34h-47.8v-248.78h1.95l177.56,163.25-10.41-4.55-.98-149.27h47.48v249.1h-1.3Z"/><path class="cls-1" d="m2199.03,1679.04h47.15v239.35h-47.15v-239.35Z"/><path class="cls-1" d="m2280.98,1918.39l107.97-248.78h2.6l107.97,248.78h-54.63l-68.94-174.96,34.15-23.41-82.6,198.37h-46.5Zm73.82-86.5h71.87l16.58,39.67h-103.09l14.63-39.67Z"/><path class="cls-1" d="m2568.45,1829.94c0,7.59,2.28,14.85,6.83,21.79,4.55,6.94,10.57,12.58,18.05,16.91,7.48,4.34,15.66,6.5,24.55,6.5,9.76,0,18.42-2.16,26.02-6.5,7.59-4.33,13.6-9.97,18.05-16.91,4.44-6.94,6.67-14.2,6.67-21.79v-150.89h46.5v151.87c0,17.56-4.34,33.12-13.01,46.67-8.67,13.55-20.38,24.18-35.12,31.87-14.75,7.7-31.11,11.54-49.11,11.54s-33.98-3.85-48.62-11.54c-14.63-7.69-26.29-18.32-34.96-31.87-8.67-13.55-13.01-29.11-13.01-46.67v-151.87h47.15v150.89Z"/><path class="cls-1" d="m2899.83,1736.93c-9.11-4.98-18.37-9.11-27.8-12.36-9.43-3.25-18.27-4.88-26.5-4.88-10.19,0-18.21,2.06-24.07,6.18-5.85,4.12-8.78,10.3-8.78,18.54,0,5.64,2.22,10.68,6.67,15.12,4.44,4.45,10.19,8.4,17.24,11.87,7.04,3.47,14.36,6.62,21.95,9.43,6.94,2.6,13.82,5.69,20.65,9.27,6.83,3.58,12.95,8.02,18.37,13.33,5.42,5.31,9.76,11.93,13.01,19.84,3.25,7.92,4.88,17.62,4.88,29.11,0,12.14-3.15,23.41-9.43,33.82-6.29,10.41-15.5,18.81-27.64,25.2-12.14,6.4-27.1,9.59-44.88,9.59-9.11,0-18.37-.92-27.8-2.76-9.43-1.84-18.7-4.66-27.8-8.46-9.11-3.79-17.89-8.62-26.34-14.47l20.81-36.75c5.64,4.12,11.76,7.75,18.37,10.89,6.61,3.15,13.28,5.58,20,7.32,6.72,1.74,12.9,2.6,18.54,2.6s11.33-.81,17.07-2.44c5.74-1.63,10.51-4.39,14.31-8.29,3.79-3.9,5.69-9.32,5.69-16.26,0-4.77-1.58-9.11-4.72-13.01-3.14-3.9-7.37-7.48-12.68-10.73-5.31-3.25-11.11-6.07-17.4-8.46-7.37-2.82-14.96-6.07-22.76-9.76-7.8-3.68-15.12-8.18-21.95-13.5-6.83-5.31-12.36-11.92-16.58-19.84-4.23-7.91-6.34-17.61-6.34-29.11,0-13.87,3.09-25.9,9.27-36.1,6.18-10.19,14.9-18.26,26.18-24.23,11.27-5.96,24.28-9.27,39.02-9.92,19.29,0,34.96,2.28,46.99,6.83,12.03,4.55,22.81,9.97,32.36,16.26l-17.89,36.1Z"/><path class="cls-1" d="m1350.26,2189.28c0-16.47,3.14-32.08,9.43-46.83,6.29-14.74,15.01-27.8,26.18-39.19,11.16-11.38,24.12-20.32,38.86-26.83,14.74-6.5,30.57-9.76,47.48-9.76s32.41,3.25,47.15,9.76c14.74,6.5,27.8,15.45,39.19,26.83,11.38,11.38,20.27,24.45,26.67,39.19,6.39,14.75,9.59,30.35,9.59,46.83s-3.2,32.74-9.59,47.48c-6.4,14.75-15.28,27.7-26.67,38.86-11.38,11.17-24.45,19.89-39.19,26.18-14.75,6.29-30.46,9.43-47.15,9.43s-32.74-3.14-47.48-9.43c-14.75-6.29-27.7-15.01-38.86-26.18-11.17-11.16-19.89-24.12-26.18-38.86-6.29-14.74-9.43-30.57-9.43-47.48Zm48.78,0c0,10.62,1.9,20.54,5.69,29.76,3.79,9.22,9.11,17.35,15.93,24.39,6.83,7.05,14.74,12.52,23.74,16.42,8.99,3.9,18.81,5.85,29.43,5.85s19.67-1.95,28.46-5.85,16.42-9.38,22.93-16.42c6.5-7.04,11.6-15.17,15.28-24.39,3.68-9.21,5.53-19.13,5.53-29.76s-1.9-20.92-5.69-30.24c-3.8-9.32-9-17.5-15.61-24.55-6.62-7.04-14.36-12.52-23.25-16.42-8.89-3.9-18.54-5.85-28.94-5.85s-20.06,1.95-28.94,5.85c-8.89,3.9-16.7,9.38-23.42,16.42-6.72,7.05-11.93,15.23-15.61,24.55-3.69,9.32-5.53,19.41-5.53,30.24Z"/><path class="cls-1" d="m1615.95,2308.63c7.37-11.71,14.15-22.44,20.33-32.19,6.18-9.76,13.11-20.81,20.81-33.17,7.69-12.36,15.61-25.04,23.74-38.05,8.13-13.01,16.04-25.69,23.74-38.05,7.69-12.36,14.63-23.41,20.81-33.17,6.18-9.76,12.95-20.49,20.33-32.19l5.2,13.01h-86.18c-4.55,0-9.27-1.03-14.15-3.09-4.88-2.06-9-4.88-12.36-8.46-3.36-3.58-5.04-7.53-5.04-11.87v-34.15h43.25v4.55c0,4.77.76,7.21,2.28,7.32,1.51.11,4.23.16,8.13.16h133.01l-126.18,199.02-2.6-5.2h128.45v45.53h-203.58Z"/><path class="cls-1" d="m1852.37,2189.28c0-16.47,3.14-32.08,9.43-46.83,6.29-14.74,15.01-27.8,26.18-39.19,11.16-11.38,24.12-20.32,38.86-26.83,14.74-6.5,30.57-9.76,47.48-9.76s32.41,3.25,47.15,9.76c14.74,6.5,27.8,15.45,39.19,26.83,11.38,11.38,20.27,24.45,26.67,39.19,6.39,14.75,9.59,30.35,9.59,46.83s-3.2,32.74-9.59,47.48c-6.4,14.75-15.28,27.7-26.67,38.86-11.38,11.17-24.45,19.89-39.19,26.18-14.75,6.29-30.46,9.43-47.15,9.43s-32.74-3.14-47.48-9.43c-14.75-6.29-27.7-15.01-38.86-26.18-11.17-11.16-19.89-24.12-26.18-38.86-6.29-14.74-9.43-30.57-9.43-47.48Zm48.78,0c0,10.62,1.9,20.54,5.69,29.76,3.79,9.22,9.11,17.35,15.93,24.39,6.83,7.05,14.74,12.52,23.74,16.42,8.99,3.9,18.81,5.85,29.43,5.85s19.67-1.95,28.46-5.85,16.42-9.38,22.93-16.42c6.5-7.04,11.6-15.17,15.28-24.39,3.68-9.21,5.53-19.13,5.53-29.76s-1.9-20.92-5.69-30.24c-3.8-9.32-9-17.5-15.61-24.55-6.62-7.04-14.36-12.52-23.25-16.42-8.89-3.9-18.54-5.85-28.94-5.85s-20.06,1.95-28.94,5.85c-8.89,3.9-16.7,9.38-23.42,16.42-6.72,7.05-11.93,15.23-15.61,24.55-3.69,9.32-5.53,19.41-5.53,30.24Z"/><path class="cls-1" d="m2443.9,2284.57c-2.82,3.04-7.27,6.13-13.33,9.27-6.07,3.15-13.06,6.02-20.98,8.62-7.92,2.6-15.99,4.71-24.23,6.34-8.24,1.63-16.05,2.44-23.41,2.44-19.51,0-37.07-2.87-52.68-8.62-15.61-5.74-28.94-13.76-40-24.06-11.06-10.29-19.51-22.49-25.37-36.58-5.85-14.09-8.78-29.48-8.78-46.18,0-21.89,3.3-40.92,9.92-57.07,6.61-16.15,15.61-29.59,26.99-40.33,11.38-10.73,24.5-18.7,39.35-23.9,14.85-5.2,30.41-7.81,46.67-7.81,15.39,0,29.48,1.68,42.28,5.04,12.79,3.36,23.63,7.54,32.52,12.52l-15.28,43.9c-3.9-2.16-9.11-4.33-15.61-6.5-6.5-2.16-13.12-3.95-19.84-5.37-6.72-1.41-12.68-2.11-17.89-2.11-13.01,0-24.5,1.63-34.47,4.88-9.97,3.25-18.37,8.13-25.2,14.63-6.83,6.5-11.98,14.58-15.45,24.23-3.47,9.65-5.2,20.87-5.2,33.66,0,11.28,1.95,21.41,5.85,30.41,3.9,9,9.38,16.64,16.42,22.93,7.04,6.29,15.39,11.06,25.04,14.31,9.64,3.25,20.33,4.88,32.03,4.88,6.72,0,12.9-.49,18.54-1.46,5.64-.98,10.41-2.55,14.31-4.72v-28.94h-41.3v-45.53h89.1v101.14Z"/><path class="cls-1" d="m2497.56,2069.28h47.15v239.35h-47.15v-239.35Z"/><path class="cls-1" d="m2606.5,2308.63v-249.1h.33l133.01,188.62-20.16-4.55,132.68-184.06h.65v249.1h-47.15v-142.76l2.93,24.39-80.97,115.12h-.65l-83.25-115.12,8.13-22.44v140.81h-45.53Z"/><path class="cls-1" d="m3129.09,2318.39l-181.46-163.9,13.98,7.8.98,146.34h-47.8v-248.78h1.95l177.56,163.25-10.41-4.55-.98-149.27h47.48v249.1h-1.3Z"/><path class="cls-1" d="m3165.19,2308.63l107.97-248.78h2.6l107.97,248.78h-54.63l-68.94-174.96,34.15-23.41-82.6,198.37h-46.5Zm73.82-86.5h71.87l16.58,39.67h-103.09l14.63-39.67Z"/><path class="cls-1" d="m3402.26,2308.63c7.37-11.71,14.15-22.44,20.33-32.19,6.18-9.76,13.11-20.81,20.81-33.17,7.69-12.36,15.61-25.04,23.74-38.05,8.13-13.01,16.04-25.69,23.74-38.05,7.69-12.36,14.63-23.41,20.81-33.17,6.18-9.76,12.95-20.49,20.33-32.19l5.2,13.01h-86.18c-4.55,0-9.27-1.03-14.15-3.09-4.88-2.06-9-4.88-12.36-8.46-3.36-3.58-5.04-7.53-5.04-11.87v-34.15h43.25v4.55c0,4.77.76,7.21,2.28,7.32,1.51.11,4.23.16,8.13.16h133.01l-126.18,199.02-2.6-5.2h128.45v45.53h-203.58Z"/><path class="cls-1" d="m3653.31,2069.28h47.15v239.35h-47.15v-239.35Z"/><path class="cls-1" d="m3830.54,2258.23c0,20.81-4.12,38.59-12.36,53.33-8.24,14.74-19.67,26.07-34.31,33.98-14.63,7.91-31.6,12.2-50.89,12.85v-45.85c14.74-.87,26.77-5.42,36.1-13.66,9.32-8.24,13.98-22.11,13.98-41.63v-187.97h47.48v188.94Z"/><path class="cls-1" d="m3858.83,2308.63l107.97-248.78h2.6l107.97,248.78h-54.63l-68.94-174.96,34.15-23.41-82.6,198.37h-46.5Zm73.82-86.5h71.87l16.58,39.67h-103.09l14.63-39.67Z"/></g><g id="Body"><path id="Legs" class="cls-2" d="m1729.13,1476.91c-28.76-56.77-69.55-97.88-120.92-116.85-434.3-131.02-720.97,964.51-420.13,1191.13-264.21-21.22-320.95-410.92-212.8-823.24,145.27-583.74,669.7-868.25,753.85-251.03Z"/><path id="Hands" class="cls-1" d="m504.82,963.19c-3.75,64.14,9.24,115.49,41.76,157.7,301.93,333.16,1045.95-507.47,910.8-837.42,418.01,307.4-627.68,1445.01-952.58,1073.94-74.79-79.29-61.59-257.34.02-394.22Z"/><circle id="Head" class="cls-2" cx="899.68" cy="843.56" r="177.59"/></g></svg>